<svg width="24" height="20" viewBox="0 0 24 20" fill="none" xmlns="http://www.w3.org/2000/svg">
<path d="M13.6462 19.3537C13.5997 19.3073 13.5629 19.2521 13.5377 19.1914C13.5125 19.1307 13.4996 19.0657 13.4996 19C13.4996 18.9343 13.5125 18.8692 13.5377 18.8085C13.5629 18.7478 13.5997 18.6927 13.6462 18.6462L21.7925 10.5L0.999975 10.5C0.867366 10.5 0.740188 10.4473 0.646421 10.3535C0.552652 10.2598 0.499975 10.1326 0.499975 9.99997C0.499975 9.86736 0.552652 9.74019 0.646421 9.64642C0.740188 9.55265 0.867366 9.49997 0.999975 9.49997L21.7925 9.49997L13.6462 1.35372C13.5998 1.30727 13.5629 1.25212 13.5378 1.19142C13.5126 1.13072 13.4997 1.06567 13.4997 0.999972C13.4997 0.934275 13.5126 0.869221 13.5378 0.808524C13.5629 0.747828 13.5998 0.692677 13.6462 0.646222C13.6927 0.599767 13.7478 0.562917 13.8085 0.537776C13.8692 0.512634 13.9343 0.499694 14 0.499694C14.0657 0.499694 14.1307 0.512634 14.1914 0.537776C14.2521 0.562917 14.3073 0.599767 14.3537 0.646222L23.3537 9.64622C23.4002 9.69266 23.4371 9.7478 23.4623 9.8085C23.4874 9.8692 23.5004 9.93427 23.5004 9.99997C23.5004 10.0657 23.4874 10.1307 23.4623 10.1914C23.4371 10.2521 23.4002 10.3073 23.3537 10.3537L14.3537 19.3537C14.3073 19.4002 14.2521 19.4371 14.1914 19.4623C14.1307 19.4874 14.0657 19.5004 14 19.5004C13.9343 19.5004 13.8692 19.4874 13.8085 19.4623C13.7478 19.4371 13.6927 19.4002 13.6462 19.3537Z" fill="white"/>
</svg>
